<svg width="34" height="22" viewBox="0 0 34 22" fill="none" xmlns="http://www.w3.org/2000/svg">
<path d="M12.5107 2.83643H21.5658V19.1068H12.5107V2.83643Z" fill="#FF5F00"/>
<path d="M13.0855 10.9722C13.0855 7.66637 14.6378 4.73426 17.0238 2.837C15.2703 1.45718 13.0568 0.623535 10.6421 0.623535C4.92161 0.623535 0.293457 5.25169 0.293457 10.9722C0.293457 16.6927 4.92161 21.3209 10.6421 21.3209C13.0568 21.3209 15.2703 20.4872 17.0238 19.1074C14.6378 17.2389 13.0855 14.278 13.0855 10.9722Z" fill="#EB001B"/>
<path d="M33.7831 10.9717C33.7831 16.6922 29.1549 21.3204 23.4344 21.3204C21.0197 21.3204 18.8063 20.4867 17.0527 19.1069C19.4674 17.2097 20.991 14.2775 20.991 10.9717C20.991 7.66588 19.4387 4.73377 17.0527 2.83651C18.8063 1.45669 21.0197 0.623047 23.4344 0.623047C29.1549 0.623047 33.7831 5.27994 33.7831 10.9717Z" fill="#F79E1B"/>
</svg>
