<svg width="29" height="29" viewBox="0 0 29 29" fill="none" xmlns="http://www.w3.org/2000/svg">
<path fill-rule="evenodd" clip-rule="evenodd" d="M11.3027 0.246094H17.4711V28.2461H11.3027V6.61119H0.386812V5.24613C0.386812 2.48471 2.62539 0.24613 5.38681 0.24613H11.3027V0.246094ZM28.3867 6.92362H20.6366V0.246173H23.3867C26.1481 0.246173 28.3867 2.48475 28.3867 5.24617V6.92362ZM0.386719 9.96399H8.13685V16.6122H0.386719V9.96399ZM0.386719 19.9647H8.13685V28.2461H5.38672C2.62529 28.2461 0.386719 26.0076 0.386719 23.2461V19.9647ZM20.6366 19.9647H28.3867V23.2461C28.3867 26.0076 26.1481 28.2461 23.3867 28.2461H20.6366V19.9647ZM28.3297 9.96399H20.5796V16.6122H28.3297V9.96399Z" fill="#3B3E44"/>
</svg>
